<svg width="155" height="33" viewBox="0 0 155 33" fill="none" xmlns="http://www.w3.org/2000/svg">
<path fill-rule="evenodd" clip-rule="evenodd" d="M124.562 0.836792H128.799V32.2618H124.562V0.836792ZM143.987 28.5993C145.674 28.5993 147.199 27.8993 148.362 26.7618V26.7493H153.537C151.699 30.3618 148.112 32.8243 143.987 32.8243C137.974 32.8243 133.112 27.6368 133.112 21.2368C133.112 14.8368 137.987 9.64929 143.987 9.64929C149.024 9.64929 153.262 13.3243 154.487 18.2868C154.724 19.2243 154.862 20.2118 154.862 21.2368V22.5243H137.449C137.999 25.9743 140.712 28.5993 143.987 28.5993ZM150.074 18.2993C149.049 15.7118 146.724 13.8993 143.999 13.8993C141.274 13.8993 138.949 15.7118 137.912 18.2993H150.074ZM17.8117 20.7243C19.0117 16.0493 20.6617 9.66179 28.6242 9.66179C34.6367 9.66179 39.4992 14.8493 39.5117 21.2493V32.2618H35.2742V21.2493C35.2742 17.1868 32.2992 13.8993 28.6367 13.8993C24.1617 13.8993 23.2492 16.5993 21.9242 21.7743C20.7242 26.4493 19.0742 32.8368 11.1117 32.8368C5.0992 32.8368 0.236694 27.6493 0.236694 21.2493V10.2368H4.4617V21.2493C4.4617 25.3118 7.4367 28.5993 11.0992 28.5993C15.5742 28.5993 16.4867 25.8993 17.8117 20.7243ZM108.524 9.66179C102.524 9.66179 97.6492 14.8493 97.6492 21.2493C97.6492 27.6493 102.512 32.8368 108.524 32.8368C111.024 32.8368 113.324 31.9243 115.162 30.4118V32.2618H119.399V21.2493C119.399 14.8493 114.524 9.66179 108.524 9.66179ZM108.524 28.5993C104.862 28.5993 101.887 25.3118 101.887 21.2493C101.887 17.1868 104.862 13.8993 108.524 13.8993C112.187 13.8993 115.162 17.1868 115.162 21.2493C115.162 25.3118 112.187 28.5993 108.524 28.5993ZM57.9742 16.4368C57.9742 18.1868 58.8367 18.6618 63.0492 19.2868C66.4117 19.7743 71.4992 20.5243 71.5117 26.0118C71.5117 29.7993 67.4242 32.8243 62.3742 32.8243C57.3242 32.8243 53.3992 29.8868 53.2367 25.9743H57.4367C57.6492 27.4868 59.6617 28.5993 62.3742 28.5993C65.0742 28.5993 67.2742 27.4743 67.2742 26.0243C67.2742 24.4993 66.4617 24.0618 62.4367 23.4743L62.4197 23.4718C58.9569 22.9592 53.6743 22.1774 53.7492 16.4243C53.7867 12.6118 57.5992 9.66179 62.3617 9.66179C67.1242 9.66179 70.8617 12.6118 71.0117 16.4368H66.7742C66.6492 14.9743 64.7867 13.8993 62.3617 13.8993C59.9367 13.8993 57.9742 15.0368 57.9742 16.4368ZM90.1117 26.0243C88.8992 27.5993 87.0867 28.5993 85.0742 28.5993C81.4117 28.5993 78.4367 25.3118 78.4367 21.2493C78.4367 17.1868 81.4117 13.8993 85.0742 13.8993C87.0992 13.8993 88.8992 14.8993 90.1117 16.4743H94.9742C93.2617 12.4618 89.4742 9.66179 85.0742 9.66179C79.0742 9.66179 74.1992 14.8493 74.1992 21.2493C74.1992 27.6493 79.0617 32.8368 85.0742 32.8368C89.4742 32.8368 93.2617 30.0368 94.9742 26.0243H90.1117ZM48.9117 10.2368H44.6742V32.2493H48.9117V10.2368ZM49.7617 3.81179C49.7617 5.45484 48.4297 6.78679 46.7867 6.78679C45.1437 6.78679 43.8117 5.45484 43.8117 3.81179C43.8117 2.16875 45.1437 0.836792 46.7867 0.836792C48.4297 0.836792 49.7617 2.16875 49.7617 3.81179Z" fill="white"/>
</svg>
