<svg width="41" height="33" viewBox="0 0 41 33" fill="none" xmlns="http://www.w3.org/2000/svg">
<path fill-rule="evenodd" clip-rule="evenodd" d="M40.125 3.81179C40.125 5.45484 38.793 6.78679 37.15 6.78679C35.5069 6.78679 34.175 5.45484 34.175 3.81179C34.175 2.16874 35.5069 0.836792 37.15 0.836792C38.793 0.836792 40.125 2.16874 40.125 3.81179ZM17.575 20.7243C18.775 16.0493 20.425 9.66179 28.3875 9.66179C34.4 9.66179 39.2625 14.8493 39.275 21.2493V32.2618H35.0375V21.2493C35.0375 17.1868 32.0625 13.8993 28.4 13.8993C23.925 13.8993 23.0125 16.5993 21.6875 21.7743C20.4875 26.4493 18.8375 32.8368 10.875 32.8368C4.8625 32.8368 0 27.6493 0 21.2493V10.2368H4.225V21.2493C4.225 25.3118 7.2 28.5993 10.8625 28.5993C15.3375 28.5993 16.25 25.8993 17.575 20.7243Z" fill="white"/>
</svg>
